# xmcd CD database file
#
# Track frame offsets:
#	150
#	11272
#	27825
#	40922
#	53295
#	74872
#	88722
#	106608
#	117514
#	133068
#	137853
#	151358
#	162879
#	168647
#	179064
#	191593
#	202979
#	213200
#	225649
#	238276
#
# Disc length: 3322 seconds
#
# Revision: 0
# Processed by: cddbd v1.5.1PL2 Copyright (c) Steve Scherf et al.
# Submitted via: CDex 1.50
#
DISCID=170cf814
DTITLE=Various Artist - Best Of Countra Ladies CD 2
DYEAR=2002
DGENRE=Country
TTITLE0=Tammy Wynette - D.I.V.O.R.C.E
TTITLE1=Dottie West - Leavin's For Unbelievers
TTITLE2=Jennifer Weatherly - No One Has To Tell You
TTITLE3=Kitty Wells - As Long As I Live
TTITLE4=Rbecca Holden .- The Freedom To Believe
TTITLE5=Anne Murray - A Little Good News
TTITLE6=Barbara Fairchild - And Robin Danced
TTITLE7=Barbara Mandrell - The Wayward Wind
TTITLE8=Tanya Tucker - You Are So Beautiful to Me
TTITLE9=Tammy Wynette - Your Good Girls Gonna Go Bad
TTITLE10=Anne Murray - Davids song
TTITLE11=Barbara Fairchild - You Can't Put The city
TTITLE12=Tammy Wynette - Singing My Song
TTITLE13=Barbara Mandrell - This Time I Almost Made It
TTITLE14=Dottie West - Here Comes My Baby Again
TTITLE15=Barbara Fairchild - Colour My World
TTITLE16=Gail Davies - I'll Be There If You Ever Want Me
TTITLE17=Barbara Mandrell - Mama Don't Lov' No Music
TTITLE18=Kitty Wells - Release Me
TTITLE19=Patsy Cline - Stop The World
EXTD=YEAR: 2002
EXTT0=
EXTT1=
EXTT2=
EXTT3=
EXTT4=
EXTT5=
EXTT6=
EXTT7=
EXTT8=
EXTT9=
EXTT10=
EXTT11=
EXTT12=
EXTT13=
EXTT14=
EXTT15=
EXTT16=
EXTT17=
EXTT18=
EXTT19=
PLAYORDER=
